<?xml version="1.0" encoding="UTF-8"?>
<svg version="1.1" viewBox="0 0 236 40" xmlns="http://www.w3.org/2000/svg">
<g fill="none">
<path transform="translate(0 26.918)" d="m6.1246 10.727c-0.36721 0-0.73443 0-1.1016-0.1064-0.57705-0.1595-1.1016-0.4253-1.6262-0.85071-0.62951-0.53171-1.1541-1.1166-1.4688-1.861-0.2623-0.63805-0.36721-1.2761-0.36721-1.9673 0.05245-0.21268 0.05245-0.42537 0.10491-0.63805 0.05246-0.15952 0-0.21269-0.10491-0.31903-0.57705-0.79756-1.0492-1.5951-1.5213-2.3927-0.052459-0.10634-0.052459-0.21268 0-0.26585 0.26229-0.42537 0.52459-0.79757 0.83934-1.1698 0.26229-0.31902 0.57705-0.63805 0.83934-0.95708 0.05246-0.053171 0.05246-0.053172 0.10492-0.10634 0.10492-0.10634 0.20984-0.15951 0.31475 0.053172 0.57705 0.90391 1.259 1.7546 1.941 2.5522 0.52459 0.69123 1.1016 1.3293 1.6787 1.9673 0.57705 0.58488 1.1016 1.2229 1.7311 1.8078 0.78689 0.7444 1.5738 1.4888 2.4131 2.18 0.68196 0.53171 1.364 1.0634 2.0984 1.542 0.1049 0.0531 0.0525 0.1063 0 0.1595-0.682 0.7444-1.4689 1.4356-2.3082 2.0205-0.05246 0.0531-0.10491 0.0531-0.15737 0-0.78689-0.4786-1.5738-0.9571-2.2557-1.4888-0.20984-0.1595-0.36721-0.2659-0.62951-0.1595-0.10492 0.0531-0.20984 0-0.36721 0.0531 0-0.0531-0.05246-0.1063-0.15738-0.0531z" clip-rule="evenodd" fill="#F3F3F3" fill-rule="evenodd"/>
<path transform="translate(3.3049)" d="m35.344 14.197c-0.682-3.7752-2.4656-6.9654-5.1935-9.5708-3.3049-3.0839-7.1869-4.5727-11.593-4.6259-0.8918 0-1.7312 0.053171-2.623 0.21268-1.8885 0.31903-3.6196 0.90391-5.2983 1.8078-0.89184 0.47854-1.7836 1.0634-2.623 1.7546-0.47213 0.42537-0.94426 0.79757-1.4164 1.2761-0.31475 0.37219-0.68197 0.69122-0.99672 1.0634-0.2623 0.31903-0.52459 0.58488-0.78689 0.90391-0.47213 0.63805-0.94426 1.2761-1.3115 1.9673-0.52459 0.90391-0.99672 1.9142-1.3639 2.9244-0.20984 0.6381-0.41968 1.223-0.5246 1.861-0.15737 0.6912-0.26229 1.3825-0.36721 2.0737-0.05246 0.4254-0.05246 0.8507-0.10492 1.2761v0.2659 1.2229c0.05246 0.1063 0 0.2127 0.05246 0.2658 0 0.5318 0.05246 1.0635 0.15738 1.542 0.05246 0.5317 0.15738 1.1166 0.31475 1.6483 0.05246 0.1064 0.10492 0.2127 0 0.319-0.20983 0.2659-0.47213 0.5318-0.68196 0.7976-0.31475 0.4254-0.62951 0.9039-0.94426 1.3293-0.052459 0.1063-0.052459 0.1595 0 0.2127 0.26229 0.4253 0.47213 0.8507 0.73443 1.2761 0.73443 1.1697 1.5213 2.2863 2.4131 3.3498 0.52459 0.638 1.0492 1.2229 1.5738 1.8078 0.26229 0.2658 0.52459 0.5317 0.83934 0.7975 0.31475 0.3191 0.62951 0.5849 0.94426 0.904 0.41967 0.4253 0.8918 0.7975 1.3639 1.1697 0.57704 0.4786 1.2066 0.9571 1.8361 1.3825 0.62954 0.4253 1.259 0.8507 1.8885 1.2229 0.1574 0.1063 0.2623 0.1063 0.3672 0 0.682-0.4785 1.3115-0.9571 1.8885-1.542 0.0525-0.0531 0.1049-0.1063 0.1574-0.0531 0.1049 0.0531 0.2623 0.0531 0.3672 0.1063 0.6295 0.1595 1.2066 0.2659 1.8361 0.319 0.4721 0.0532 0.9442 0.0532 1.3639 0.1064 0.1574 0.0532 0.3148 0 0.4197 0h0.3672c0.1574-0.0532 0.3148 0 0.4197 0 0.3672 0 0.7869-0.0532 1.1541-0.1064 0.9442-0.1063 1.8885-0.2658 2.7803-0.5317 1.4688-0.4253 2.8328-1.0102 4.1443-1.8078 1.5213-0.9039 2.8327-2.0205 4.0393-3.4029 3.9869-4.4132 5.4557-9.624 4.4066-15.526zm-6.6623 14.144c-1.8886 2.0205-4.1968 3.2434-6.8722 3.9347-1.2065 0.319-2.4655 0.4253-3.7246 0.3722-3.6196-0.1595-6.7672-1.4357-9.3901-3.9879-2.2557-2.18-3.777-4.8385-4.3541-7.9756-0.8918-4.7323 0.20984-9.0391 3.2525-12.708 2.0459-2.499 4.7214-3.9878 7.8164-4.6259 1.1017-0.26585 2.2558-0.3722 3.3574-0.31903 3.2 0.10635 6.0853 1.1698 8.5508 3.2434 2.5705 2.1268 4.2492 4.7854 5.0361 8.082 0.2623 1.1698 0.4197 2.3927 0.4197 3.6156-0.0525 3.9879-1.364 7.444-4.0918 10.368z" clip-rule="evenodd" fill="#F3F3F3" fill-rule="evenodd"/>
<path transform="translate(10.106 5.8812)" d="m11.441 0.02086c5.6131 0 10.439 3.9347 11.698 9.5176 0.6819 3.0839 0.2623 6.0083-1.2066 8.8264-0.1574 0.319-0.3147 0.638-0.5246 0.9039-1.3639 1.5951-3.8819 1.1166-4.6164-0.9039-0.3672-1.1166-1.1016-1.9142-2.0983-2.4459-1.5213-0.7975-3.0426-0.6912-4.5115 0.2127-3.777 2.2864-8.6033 0.319-9.8623-3.9878-0.57705-1.9142-0.36721-3.7752 0.57705-5.4766 1.8361-3.5093 4.6164-5.6361 8.3934-6.4337 0.2623-0.053171 0.52459-0.10634 0.7869-0.10634 0.4197-0.10634 0.9443-0.15951 1.3639-0.10634zm4.8787 23.183c0.3672-0.1064 0.7869-0.2127 1.0492-0.5317 0.7344-0.7976 0.2623-2.0737-0.5771-2.2332-0.3147-0.0532-0.577-0.2659-0.8393-0.4786-0.2623-0.2658-0.4197-0.638-0.5771-0.9571-0.4196-0.957-1.4163-1.5419-2.4131-1.3824-1.3114 0.2127-2.2557 1.6483-1.6787 3.1903 0.6296 1.5951 2.1509 2.6054 3.9345 2.6054 0.3147-0.0532 0.7344-0.1064 1.1016-0.2127z" clip-rule="evenodd" fill="url(#a)" fill-rule="evenodd"/>
<path transform="translate(90.269 6.7527)" d="m4.9836 27.117h-4.5115c-0.36721 0-0.47213-0.1064-0.47213-0.5317v-26.054c0-0.3722 0.052456-0.53171 0.47213-0.53171h5.6131c0.36721 0 0.47213 0.10634 0.57704 0.47854 1.5213 6.2742 3.0426 12.548 4.5639 18.876 0.0525 0.1595 0.0525 0.319 0.2099 0.4785 0.3672-0.7975 0.4721-1.6483 0.6819-2.4458 0.8918-3.7752 1.7836-7.5503 2.7279-11.325 0.4721-1.861 0.8918-3.722 1.3639-5.583 0.105-0.31903 0.2099-0.42537 0.4722-0.42537h5.8229c0.5771 0 0.4197 0.3722 0.4197 0.69122v21.588 4.3068c0 0.4254-0.1049 0.5317-0.4721 0.5317h-4.5115c-0.1049-0.2126-0.0525-0.4253-0.0525-0.638v-15.313c0-0.1595 0.1574-0.4254-0.1574-0.5317-0.577 1.9673-1.1016 3.9878-1.6786 5.9552-0.9443 3.4561-1.8886 6.859-2.8328 10.315-0.0525 0.2126-0.1574 0.319-0.3672 0.319h-2.8328c-0.52461 0-0.47216-0.4786-0.57708-0.7976-0.57705-1.9141-1.1016-3.8815-1.6262-5.8488-0.52459-1.861-0.99671-3.6688-1.4688-5.5298-0.36721-1.4356-0.78688-2.8712-1.2066-4.3069-0.31476 0.1064-0.15738 0.4254-0.15738 0.6381v15.154c0.05246 0.0531 0.10491 0.319 0 0.5317z" clip-rule="evenodd" fill="#F3F3F3" fill-rule="evenodd"/>
<path transform="translate(171.54 6.7195)" d="m12 8.1685c0-1.6483-0.3672-3.1371-1.941-3.8283-2.0459-0.90391-4.4065 0.15951-4.4065 2.7117-0.05246 0.21269-0.05246 0.47854 0 0.69123-0.05246 1.1166 0.62949 1.8078 1.4164 2.3927 1.259 0.9571 2.7279 1.4888 4.1442 2.0737 1.8885 0.7975 3.6721 1.8078 4.8787 3.6688 0.682 1.0634 0.9967 2.2332 1.1016 3.5093 0.0525 0.4785 0.0525 0.9571 0 1.4356-0.3672 3.8815-2.9377 6.0083-6.295 6.54-0.4722 0.0532-0.9443 0.1064-1.4164 0.1596-0.36722 0.0531-0.78689 0.0531-1.1541 0-1.8361-0.1064-3.5672-0.5317-5.141-1.5952-1.6262-1.1166-2.5705-2.6054-2.9902-4.5195-0.10492-0.4786-0.10491-0.9571-0.15737-1.4356-0.052459-0.3722-0.052459-0.6913 0-1.0635 0.62951-0.2126 1.259-0.0531 1.8361-0.1063h2.4656c0.52459-0.0532 0.6295 0.1063 0.68196 0.6381 0 1.1697 0.2623 2.2863 1.1541 3.1902 0.99672 1.0103 3.8819 1.4356 5.1409-0.1063 0.8918-1.0634 0.9443-2.2864 0.5771-3.6157-0.3148-1.2229-1.3115-1.8609-2.3082-2.4458-1.1541-0.6913-2.4656-1.0103-3.6721-1.5952-1.2066-0.5848-2.4131-1.2761-3.4623-2.18-0.99672-0.9039-1.6262-2.0737-1.8885-3.4029-0.2623-1.4356-0.20984-2.8712 0.20983-4.3069 0.41967-1.4356 1.3639-2.5522 2.518-3.403 2.8852-2.1268 7.8689-2.0737 10.649 0 1.8361 1.3293 2.7803 3.1903 2.9377 5.4766 0 0.31903 0.0524 0.69123 0.1049 1.0102-0.0525 0.21269-0.2098 0.21269-0.3672 0.21269h-4.459c-0.0525 0-0.1049-0.05317-0.1574-0.10634z" clip-rule="evenodd" fill="#F3F3F3" fill-rule="evenodd"/>
<path transform="translate(154.09 6.7527)" d="m0.12553-1.0142e-7c0.83934 0 1.6787 0.053171 2.518 0.053171h11.593c0.5246 0 0.6295 0.10634 0.6295 0.63805-0.0524 1.0103 0 2.0205 0 3.0308 0 0.42537-0.1049 0.53171-0.4721 0.47854h-8.4984c-0.47213 0-0.6295 0.10634-0.6295 0.63805 0.05246 1.9142 0 3.8283 0 5.7425 0 0.3721 0.10492 0.5317 0.47213 0.5317h7.0296c0.4721 0 0.577 0.1063 0.577 0.5848-0.0525 0.9571-0.0525 1.9674 0 2.9245 0 0.4785-0.1049 0.638-0.6295 0.638-2.3082-0.0532-4.6164 0-6.8721-0.0532-0.41967 0-0.57704 0.1064-0.57704 0.5849 0.05246 2.2332 0 4.5196 0 6.7528 0 0.2126-0.10493 0.4785 0.31474 0.4785 3.0951 0 6.1377 0 9.2328-0.0532 0.0524 0 0.1049 0.0532 0.1049 0.0532 0 1.3824 0.1049 2.7117-0.0525 4.0942h-14.741c-0.10492-0.2127-0.052462-0.4254-0.052462-0.5849v-25.894c-0.052459-0.21268-0.15737-0.47854 0.052462-0.63805z" clip-rule="evenodd" fill="#F3F3F3" fill-rule="evenodd"/>
<path transform="translate(48.262 6.6442)" d="m12.682 18.825c1.4164 0 2.8328 0.0532 4.3016 0 0.4721 0 0.6295 0.1595 0.5771 0.6381-0.105 1.8078-0.3673 3.5624-1.4164 5.1044-1.2066 1.6483-2.8853 2.4459-4.7738 2.8181-0.5246 0.1063-1.0492 0.1063-1.5738 0.1595-0.41967 0.0532-0.83934 0.0532-1.259 0-1.2066-0.0532-2.4131-0.2659-3.5672-0.7444-2.2557-0.9571-3.6197-2.6586-4.4066-4.9981-0.36721-1.0102-0.47213-2.0737-0.52459-3.1371-0.052459-3.2966-0.052459-6.54 0-9.7835 0.052459-1.9142 0.52459-3.6688 1.5738-5.3171 1.3639-2.1268 3.3574-3.1371 5.7705-3.4561 2.0984-0.26586 4.0918-0.053171 6.0328 0.7444 2.1508 0.90391 3.4098 2.6054 3.9344 4.9449 0.1574 0.79757 0.2623 1.5951 0.2623 2.4459 0 0.3722-0.1049 0.47854-0.4721 0.47854h-3.7246c-0.8394 0-0.8918-0.10634-0.8918-0.95708 0-1.0634-0.2098-2.0737-1.0492-2.7649-0.8918-0.7444-2.0459-1.0102-3.1475-0.79757-1.9934 0.3722-2.8328 1.4356-3.1475 3.5625-0.20984 1.4356-0.15738 2.8713-0.15738 4.3069 0 2.3395 0 4.6259 0.05246 6.9654 0 1.0634 0.26229 2.0737 0.83934 2.9244 0.68197 1.0103 1.6262 1.5952 2.8852 1.4888 0.20984 0.0532 0.47213 0.0532 0.68197 0 1.5737 0.0532 2.6754-0.9571 2.8852-2.5522 0.0525-0.319 0.2623-0.6912 0.1049-1.0634 0.2099-0.319 0-0.6912 0.2099-1.0103z" clip-rule="evenodd" fill="#F3F3F3" fill-rule="evenodd"/>
<path transform="translate(136.01 6.7527)" d="m13.482 15.792c-2.7279 0-5.5082-0.0531-8.2361 0.0532-0.10492 0.2127-0.05246 0.4254-0.05246 0.638v9.943c0 0.2127 0.05245 0.4254-0.05247 0.6381h-4.6688c-0.36721 0-0.47213-0.1063-0.47213-0.4785v-26.107c0-0.3722 0.052456-0.47854 0.47213-0.47854h14.216c0.3672 0 0.5246 0.10634 0.5246 0.53171v3.1371c0 0.42537-0.1574 0.47854-0.5246 0.47854h-8.7606c-0.20984 0-0.41968 0-0.62952 0.05317-0.05245 0.10634-0.05244 0.21268-0.05244 0.31903v6.8058c0 0.1064-1e-5 0.2127 0.05244 0.2659 1.6262 0 3.2525 0.0532 4.8788 0.0532h3.3573c0.2099 0.638 0.0525 1.3293 0.0525 1.9673 0 0.7444 0.1049 1.4888-0.1049 2.18z" clip-rule="evenodd" fill="#F3F3F3" fill-rule="evenodd"/>
<path transform="translate(191.36 6.8059)" d="m5.8754 4.1474c-1.7836 0-3.5672-0.05317-5.3508 0-0.41967 0-0.52459-0.10634-0.52459-0.53171 0.052459-1.0634 0-2.0737 0-3.1371 0-0.3722 0.10491-0.47854 0.47213-0.47854h16.157c0.4197 0 0.5246 0.15951 0.4721 0.53171v3.1371c0 0.3722-0.1049 0.47854-0.4721 0.47854-1.6262 0-3.3049 0-4.9311-0.05317-0.6295 0-0.7345 0.21268-0.7345 0.79756 0 7.125 0 14.303 0.0525 21.428 0 0.5849-0.1574 0.7444-0.682 0.7444-1.4688-0.0532-2.8852 0-4.3541 0-0.10492-0.2127-0.05246-0.4254-0.05246-0.6381v-21.587c0-0.26585 0.05245-0.47854-0.05246-0.69122z" clip-rule="evenodd" fill="#F3F3F3" fill-rule="evenodd"/>
<path transform="translate(68.38 6.735)" d="m18.846 8.1529c-0.4197-4.4664-3.6721-7.7098-8.1311-8.082-3.4623-0.31903-6.6099 0.3722-8.8656 3.4561-1.1016 1.4888-1.6787 3.2966-1.7836 5.1576-0.10492 3.0839-0.052454 5.6893-0.052454 8.72 0 3.2435 1.2066 6.4337 3.9344 8.2416 3.4098 2.2331 9.1279 1.9673 12.275-1.1166 1.8361-1.8079 2.623-4.0942 2.6755-6.6464 0.1049-3.4562 0.2623-6.3806-0.0525-9.7303zm-6.2426 10.953c-2.3082 1.2761-4.564-2.0737-2.623-2.9776 0.57707-0.2658 1.259-0.0531 1.5738 0.5317 0.2623 0.4786 0.577 0.8508 1.1016 1.1166 0.5246 0.2659 0.4722 1.0103-0.0524 1.3293zm2.7803-2.499c-0.682 1.2229-2.2557 1.1697-2.8328-0.1064-0.7344-1.7015-2.3082-1.7546-3.882-0.9039-3.6197 2.0205-7.2918-1.8078-5.3508-5.4766 3.2-6.3274 12.748-4.4664 13.062 3.3498 0 1.2761-0.3672 2.0205-0.9967 3.1371z" clip-rule="evenodd" fill="#F3F3F3" fill-rule="evenodd"/>
<path transform="translate(116.13 6.7291)" d="m17.364 7.9993c-0.0524-0.3722-0.1049-0.7444-0.1573-1.1698-0.2623-1.7546-1.0492-3.2434-2.2558-4.5195-1.6262-1.5951-3.6197-2.2332-5.8229-2.2864-2.8852-0.053171-5.7705 0-8.6557 0-0.41967 0-0.47213 0.15951-0.47213 0.53171v26.054c0 0.4254 0.10491 0.5317 0.47213 0.5317h4.5639c0.10492-0.2127 0.05246-0.4254 0.05246-0.6381v-8.4542c0-0.6912 1e-5 -0.6912 0.68197-0.6912 1.2066 0 2.4656 0.0532 3.6721 0 1.2066-0.0532 2.3607-0.319 3.4099-0.8507 2.8327-1.4356 4.1967-3.8815 4.459-7.0718 0.1049-0.47854 0.1049-0.95708 0.0524-1.4356zm-5.4557 2.9776c-0.5771 1.4888-1.5738 2.2332-3.1475 2.2332-1.0492 0-2.0459-0.0532-3.0951 0-0.47213 0-0.57706-0.1595-0.57706-0.6381 0.05246-1.3293 0-2.6054 0-3.9346v-3.9878c0-0.3722 0.10492-0.47854 0.47213-0.47854 0.89181 0.05317 1.8361 0 2.7279 0 2.2558 0 3.4099 0.90391 3.8295 3.1903 0.2623 1.2229 0.2099 2.4459-0.2098 3.6156z" clip-rule="evenodd" fill="#F3F3F3" fill-rule="evenodd"/>
<path transform="translate(216.17 6.8059)" d="m9.9148 9.305 3.5672-9.3049h6.1901l-6.2426 13.399 6.4 13.612h-6.2426l-3.6722-9.4644-3.6197 9.4644h-6.2951l6.4524-13.612-6.2951-13.399h6.1902l3.5672 9.3049z" fill="#F3F3F3"/>
</g>
<defs>
<linearGradient id="a" x2="1" gradientTransform="matrix(11.976 21.025 -20.743 12.139 16.765 -4.9547)" gradientUnits="userSpaceOnUse">
<stop stop-color="#77338B" offset="0"/>
<stop stop-color="#8DD6F7" offset="1"/>
</linearGradient>
</defs>
</svg>
