<svg xmlns="http://www.w3.org/2000/svg" xmlns:xlink="http://www.w3.org/1999/xlink" viewBox="0 0 151 24.77"><defs><style>.cls-1{fill:#212121;}.cls-1,.cls-2{fill-rule:evenodd;}.cls-2{fill:url(#linear-gradient);}.cls-3{fill:#212121;}</style><linearGradient id="linear-gradient" x1="10.53" y1="4.42" x2="18.2" y2="17.69" gradientUnits="userSpaceOnUse"><stop offset="0" stop-color="#73338c"/><stop offset="1" stop-color="#97ddff"/></linearGradient></defs><title>Asset 3</title><g id="Layer_2" data-name="Layer 2"><g id="Navbar"><path class="cls-1" d="M3.91,23.77a3.07,3.07,0,0,1-.71-.07,2.79,2.79,0,0,1-1-.52,3.38,3.38,0,0,1-1-1.18A2.59,2.59,0,0,1,1,20.76,2.06,2.06,0,0,1,1,20.34a.21.21,0,0,0-.06-.2,16.25,16.25,0,0,1-1-1.52.15.15,0,0,1,0-.18,7,7,0,0,1,.54-.75c.17-.21.35-.41.55-.61L1.18,17c.07-.07.12-.09.2,0,.38.56.8,1.1,1.23,1.63s.71.84,1.09,1.25.72.76,1.1,1.13,1,.94,1.55,1.37.88.68,1.34,1c.06,0,0,.06,0,.09a8.26,8.26,0,0,1-1.48,1.27.09.09,0,0,1-.1,0,14.63,14.63,0,0,1-1.45-.94.38.38,0,0,0-.4-.1,1.16,1.16,0,0,1-.23,0S3.95,23.75,3.91,23.77Z"/><path class="cls-1" d="M24.71,9a10.68,10.68,0,0,0-3.34-6A10.69,10.69,0,0,0,14,0a9.82,9.82,0,0,0-1.67.14A10.8,10.8,0,0,0,8.89,1.26a10.18,10.18,0,0,0-1.66,1.1,10.37,10.37,0,0,0-.89.79c-.21.22-.44.43-.64.67s-.33.38-.49.58a11,11,0,0,0-.84,1.25,10.78,10.78,0,0,0-.86,1.83,10.66,10.66,0,0,0-.35,1.18c-.1.43-.17.86-.24,1.29,0,.26,0,.53-.06.8a.89.89,0,0,1,0,.16v.83c0,.06,0,.12,0,.18a7,7,0,0,0,.09,1,8.83,8.83,0,0,0,.2,1c0,.07.06.13,0,.2l-.44.52a9.16,9.16,0,0,0-.6.85.11.11,0,0,0,0,.13c.16.26.32.53.48.79a20.64,20.64,0,0,0,1.53,2.1c.33.39.67.77,1,1.15.16.18.34.35.52.51l.61.57c.28.25.58.49.87.73s.77.6,1.17.88.8.54,1.22.78a.19.19,0,0,0,.24,0,7.67,7.67,0,0,0,1.22-1s.06-.06.1,0a1.77,1.77,0,0,0,.23.05,9.31,9.31,0,0,0,1.18.22c.29,0,.59,0,.89.06.09,0,.19,0,.28,0a1.11,1.11,0,0,1,.25,0c.09,0,.19,0,.28,0l.74-.05a11.57,11.57,0,0,0,1.78-.34,10.73,10.73,0,0,0,2.65-1.15,11,11,0,0,0,2.57-2.13A11.09,11.09,0,0,0,24.71,9Zm-4.26,8.9h0a8.78,8.78,0,0,1-4.39,2.47,8.56,8.56,0,0,1-2.39.24,9,9,0,0,1-6-2.52,9.1,9.1,0,0,1-2.77-5A9.3,9.3,0,0,1,7,5a8.73,8.73,0,0,1,5-2.93,8.48,8.48,0,0,1,2.15-.19,9,9,0,0,1,5.48,2.06A9.32,9.32,0,0,1,22.81,9a9.21,9.21,0,0,1,.27,2.27A9.32,9.32,0,0,1,20.45,17.88Z"/><path class="cls-2" d="M13.75,3.71a7.67,7.67,0,0,1,7.5,6,7.76,7.76,0,0,1-.76,5.56,3,3,0,0,1-.35.58,1.73,1.73,0,0,1-2.94-.57,2.71,2.71,0,0,0-1.34-1.53,2.82,2.82,0,0,0-2.9.14,4.31,4.31,0,0,1-6.32-2.52A4.45,4.45,0,0,1,7,7.9a7.61,7.61,0,0,1,5.38-4.06l.49-.08A6.29,6.29,0,0,1,13.75,3.71Zm3.13,14.65a1.39,1.39,0,0,0,.67-.35.87.87,0,0,0-.38-1.41,1.12,1.12,0,0,1-.53-.31,1.68,1.68,0,0,1-.36-.61,1.42,1.42,0,0,0-1.54-.87,1.45,1.45,0,0,0-1.06,2,2.66,2.66,0,0,0,2.5,1.65A2.23,2.23,0,0,0,16.89,18.36Z"/><path class="cls-1" d="M60.93,21.37c-1,0-1.93,0-2.9,0-.25,0-.31-.07-.31-.32q0-8.22,0-16.44c0-.25,0-.33.31-.33,1.2,0,2.4,0,3.61,0,.22,0,.31.05.37.3,1,4,1.94,7.93,2.91,11.9a.71.71,0,0,0,.13.3,9.42,9.42,0,0,0,.42-1.56c.59-2.38,1.12-4.77,1.75-7.14.31-1.18.56-2.36.87-3.53.05-.21.13-.27.32-.27,1.24,0,2.48,0,3.72,0,.37,0,.29.24.29.44q0,6.81,0,13.62c0,.9,0,1.81,0,2.71,0,.25-.07.33-.32.32-1,0-1.93,0-2.9,0a.82.82,0,0,1,0-.42c0-3.23,0-6.45,0-9.68,0-.11.1-.28-.09-.35-.35,1.25-.72,2.5-1.07,3.76q-.9,3.25-1.8,6.5c0,.15-.1.18-.23.18H64.17c-.34,0-.3-.31-.36-.49-.36-1.22-.69-2.46-1-3.69s-.63-2.32-.94-3.48c-.25-.9-.51-1.81-.76-2.71-.21.08-.1.26-.1.39,0,3.19,0,6.38,0,9.56A.78.78,0,0,1,60.93,21.37Z"/><path class="cls-1" d="M117.43,9.38A2.34,2.34,0,0,0,116.17,7a1.9,1.9,0,0,0-2.81,1.73.65.65,0,0,0,0,.44,1.75,1.75,0,0,0,.91,1.51A12.19,12.19,0,0,0,116.93,12a6.49,6.49,0,0,1,3.11,2.3,4.71,4.71,0,0,1,.71,2.2,5.07,5.07,0,0,1,0,.91,4.45,4.45,0,0,1-4,4.14c-.3,0-.59.07-.89.1a3.66,3.66,0,0,1-.74,0,6.28,6.28,0,0,1-3.27-1,4.31,4.31,0,0,1-1.91-2.86c-.06-.3-.06-.6-.1-.9a2.22,2.22,0,0,1,0-.68,4.42,4.42,0,0,1,1.19-.05c.53,0,1.05,0,1.58,0,.32,0,.41.06.42.41a2.76,2.76,0,0,0,.73,2,2.55,2.55,0,0,0,3.29-.07,2.37,2.37,0,0,0,.38-2.27,2.66,2.66,0,0,0-1.49-1.56c-.74-.42-1.57-.63-2.34-1a9.93,9.93,0,0,1-2.21-1.38,3.71,3.71,0,0,1-1.2-2.16,5.54,5.54,0,0,1,.13-2.72,4.18,4.18,0,0,1,1.6-2.15,6.32,6.32,0,0,1,6.8,0,4.46,4.46,0,0,1,1.88,3.46c0,.21,0,.42.06.64s-.13.14-.23.14h-2.87A.11.11,0,0,1,117.43,9.38Z"/><path class="cls-1" d="M98.68,4.27l1.61,0c2.47,0,4.94,0,7.41,0,.32,0,.41.08.39.41,0,.63,0,1.27,0,1.9,0,.25-.07.32-.32.32-1.82,0-3.63,0-5.45,0-.32,0-.4.07-.4.4,0,1.21,0,2.43,0,3.64,0,.25.07.33.32.33,1.5,0,3,0,4.49,0,.29,0,.37.07.36.36,0,.62,0,1.24,0,1.86,0,.31-.06.41-.39.41-1.47,0-2.94,0-4.41,0-.28,0-.37.06-.37.36,0,1.42,0,2.84,0,4.26,0,.14-.05.31.21.31l5.91,0s.06,0,.06,0a25.23,25.23,0,0,1,0,2.58H98.64a.69.69,0,0,1,0-.38q0-8.16,0-16.34C98.61,4.53,98.52,4.38,98.68,4.27Z"/><path class="cls-1" d="M39,16.09c.91,0,1.83,0,2.74,0,.3,0,.4.08.38.39a5.83,5.83,0,0,1-.92,3.23,4.72,4.72,0,0,1-3.05,1.79,9.3,9.3,0,0,1-1,.1,3.48,3.48,0,0,1-.82,0,6.63,6.63,0,0,1-2.27-.48A5,5,0,0,1,31.23,18a7.65,7.65,0,0,1-.34-2c0-2.07,0-4.13,0-6.19a6.36,6.36,0,0,1,1-3.34,4.85,4.85,0,0,1,3.68-2.17,7.49,7.49,0,0,1,3.87.48A4.14,4.14,0,0,1,42,7.89a7.45,7.45,0,0,1,.16,1.55c0,.23-.06.3-.29.3-.79,0-1.58,0-2.37,0-.52,0-.57-.06-.57-.62a2.14,2.14,0,0,0-.66-1.76,2.43,2.43,0,0,0-2-.5,2.23,2.23,0,0,0-2,2.23,20.29,20.29,0,0,0-.09,2.71c0,1.47,0,2.93,0,4.4A3.45,3.45,0,0,0,34.69,18a2,2,0,0,0,1.83,1A.69.69,0,0,0,37,19a1.75,1.75,0,0,0,1.86-1.62c0-.22.16-.43.08-.66C39,16.52,38.83,16.27,39,16.09Z"/><path class="cls-1" d="M95.65,14.24c-1.76,0-3.52,0-5.28,0a.73.73,0,0,0,0,.41q0,3.14,0,6.28a.81.81,0,0,1,0,.41c-1,0-2,0-3,0-.24,0-.3-.06-.3-.3q0-8.24,0-16.48c0-.23,0-.31.29-.31h9.08c.24,0,.34.06.33.32,0,.66,0,1.31,0,2,0,.27-.09.32-.33.32h-5.6l-.42,0a.29.29,0,0,0,0,.18v4.32a.28.28,0,0,0,0,.18l3.13,0h2.15a4.6,4.6,0,0,1,0,1.26A5.63,5.63,0,0,1,95.65,14.24Z"/><path class="cls-1" d="M126.19,6.91c-1.14,0-2.28,0-3.42,0-.25,0-.35-.06-.34-.34,0-.66,0-1.32,0-2,0-.24.08-.3.3-.3h10.34c.26,0,.32.09.31.34,0,.66,0,1.32,0,2,0,.24-.06.31-.3.31-1.05,0-2.11,0-3.15,0-.41,0-.46.13-.46.49,0,4.51,0,9,0,13.54,0,.37-.09.47-.45.46-.93,0-1.85,0-2.78,0a.8.8,0,0,1,0-.42c0-4.54,0-9.08,0-13.62A.77.77,0,0,0,126.19,6.91Z"/><path class="cls-1" d="M55.79,9.39A5.53,5.53,0,0,0,50.6,4.27c-2.23-.19-4.22.25-5.67,2.17A5.68,5.68,0,0,0,43.8,9.68c-.07,1.93,0,3.58,0,5.52a6,6,0,0,0,2.53,5.2,6.77,6.77,0,0,0,7.84-.69,5.85,5.85,0,0,0,1.71-4.19,51.41,51.41,0,0,0-.06-6.13Zm-4,6.92h0c-1.47.79-2.91-1.3-1.67-1.87a.76.76,0,0,1,1,.34,1.38,1.38,0,0,0,.69.7.46.46,0,0,1,0,.83Zm1.78-1.57h0a1,1,0,0,1-1.81-.08c-.47-1.07-1.47-1.12-2.48-.57a2.52,2.52,0,0,1-3.44-3.47,4.43,4.43,0,0,1,8.36,2.12A3.83,3.83,0,0,1,53.59,14.74Z"/><path class="cls-1" d="M85.39,9.3c0-.24-.06-.48-.09-.72a5,5,0,0,0-1.44-2.84A5.17,5.17,0,0,0,80.15,4.3c-1.85,0-3.7,0-5.55,0-.26,0-.31.09-.31.33q0,8.22,0,16.44c0,.25.07.33.32.32,1,0,2,0,2.93,0a.77.77,0,0,0,0-.42V15.66c0-.44,0-.44.42-.44.79,0,1.57,0,2.35,0a5.65,5.65,0,0,0,2.18-.53,5.06,5.06,0,0,0,2.86-4.45,4.22,4.22,0,0,0,0-.92ZM81.9,11.17h0a2,2,0,0,1-2,1.41c-.66,0-1.31,0-2,0-.32,0-.38-.1-.37-.39,0-.83,0-1.65,0-2.48s0-1.68,0-2.52c0-.23.05-.31.29-.31.58,0,1.16,0,1.75,0a2.16,2.16,0,0,1,2.46,2A4,4,0,0,1,81.9,11.17Z"/><path class="cls-3" d="M144.66,10.16,147,4.3h4l-4,8.46,4.1,8.61h-4l-2.34-6-2.33,6h-4l4.1-8.61-4-8.46h4Z"/></g></g></svg>